ply
format ascii 1.0
comment Created in Blender version 4.2.3 LTS
element vertex 56
property float x
property float y
property float z
property uchar red
property uchar green
property uchar blue
property uchar alpha
element face 40
property list uchar uint vertex_indices
end_header
-0.55 0.55 0.55 132 94 35 255
-0.55 0.55 0.275 226 161 61 255
-0.55 0.275 0.55 226 161 61 255
-0.55 0.275 0.275 226 161 61 255
-0.275 0.55 0.55 226 161 61 255
-0.275 0.55 0.275 226 161 61 255
-0.275 0.275 0.55 226 161 61 255
0.55 0.55 0.55 132 94 35 255
0.55 0.55 0.275 226 161 61 255
0.55 0.275 0.55 226 161 61 255
0.55 0.275 0.275 226 161 61 255
0.275 0.55 0.55 226 161 61 255
0.275 0.55 0.275 226 161 61 255
0.275 0.275 0.55 226 161 61 255
-0.55 0.55 -0.55 132 94 35 255
-0.55 0.55 -0.275 226 161 61 255
-0.55 0.275 -0.55 226 161 61 255
-0.55 0.275 -0.275 226 161 61 255
-0.275 0.55 -0.55 226 161 61 255
-0.275 0.55 -0.275 226 161 61 255
-0.275 0.275 -0.55 226 161 61 255
0.55 0.55 -0.55 132 94 35 255
0.55 0.55 -0.275 226 161 61 255
0.55 0.275 -0.55 226 161 61 255
0.55 0.275 -0.275 226 161 61 255
0.275 0.55 -0.55 226 161 61 255
0.275 0.55 -0.275 226 161 61 255
0.275 0.275 -0.55 226 161 61 255
-0.55 -0.55 0.55 132 94 35 255
-0.55 -0.55 0.275 226 161 61 255
-0.55 -0.275 0.55 226 161 61 255
-0.55 -0.275 0.275 226 161 61 255
-0.275 -0.55 0.55 226 161 61 255
-0.275 -0.55 0.275 226 161 61 255
-0.275 -0.275 0.55 226 161 61 255
0.55 -0.55 0.55 132 94 35 255
0.55 -0.55 0.275 226 161 61 255
0.55 -0.275 0.55 226 161 61 255
0.55 -0.275 0.275 226 161 61 255
0.275 -0.55 0.55 226 161 61 255
0.275 -0.55 0.275 226 161 61 255
0.275 -0.275 0.55 226 161 61 255
-0.55 -0.55 -0.55 132 94 35 255
-0.55 -0.55 -0.275 226 161 61 255
-0.55 -0.275 -0.55 226 161 61 255
-0.55 -0.275 -0.275 226 161 61 255
-0.275 -0.55 -0.55 226 161 61 255
-0.275 -0.55 -0.275 226 161 61 255
-0.275 -0.275 -0.55 226 161 61 255
0.55 -0.55 -0.55 132 94 35 255
0.55 -0.55 -0.275 226 161 61 255
0.55 -0.275 -0.55 226 161 61 255
0.55 -0.275 -0.275 226 161 61 255
0.275 -0.55 -0.55 226 161 61 255
0.275 -0.55 -0.275 226 161 61 255
0.275 -0.275 -0.55 226 161 61 255
4 5 1 0 4
4 6 4 0 2
4 2 0 1 3
4 6 2 5 4
4 3 1 5 2
4 12 11 7 8
4 13 9 7 11
4 9 10 8 7
4 13 11 12 9
4 10 9 12 8
4 19 18 14 15
4 20 16 14 18
4 16 17 15 14
4 20 18 19 16
4 17 16 19 15
4 26 22 21 25
4 27 25 21 23
4 23 21 22 24
4 27 23 26 25
4 24 22 26 23
4 33 32 28 29
4 34 30 28 32
4 30 31 29 28
4 34 32 33 30
4 31 30 33 29
4 40 36 35 39
4 41 39 35 37
4 37 35 36 38
4 41 37 40 39
4 38 36 40 37
4 47 43 42 46
4 48 46 42 44
4 44 42 43 45
4 48 44 47 46
4 45 43 47 44
4 54 53 49 50
4 55 51 49 53
4 51 52 50 49
4 55 53 54 51
4 52 51 54 50
